<?xml version="1.0" encoding="UTF-8"?>
<svg version="1.1" xmlns="http://www.w3.org/2000/svg" width="207" height="142">
<path d="M0 0 C68.31 0 136.62 0 207 0 C207 46.86 207 93.72 207 142 C138.69 142 70.38 142 0 142 C0 95.14 0 48.28 0 0 Z " fill="#FEFEFE" transform="translate(0,0)"/>
<path d="M0 0 C1.58577695 0.24667641 3.17097989 0.49736686 4.75390625 0.76171875 C7.3001129 1.03183806 9.69317754 0.88268223 12.25 0.75 C20.9622054 0.62791814 29.79183211 3.18140962 38 6 C40.01481734 8.01481734 39.7214027 11.79076863 40.0625 14.5625 C40.15337891 15.27341797 40.24425781 15.98433594 40.33789062 16.71679688 C40.56239503 18.47738403 40.78168397 20.23863478 41 22 C41.56509277 22.16604736 42.13018555 22.33209473 42.71240234 22.50317383 C45.27011257 23.26164725 47.82245378 24.03683401 50.375 24.8125 C51.26445312 25.07353516 52.15390625 25.33457031 53.0703125 25.60351562 C53.92109375 25.86455078 54.771875 26.12558594 55.6484375 26.39453125 C56.43395996 26.63018799 57.21948242 26.86584473 58.02880859 27.10864258 C60 28 60 28 62 31 C62.47271588 35.38036806 62.37037248 39.78441848 62.375 44.1875 C62.39949219 45.39470703 62.42398438 46.60191406 62.44921875 47.84570312 C62.49318568 61.24829026 62.49318568 61.24829026 58 66 C53.54311604 69.34398113 48.83075064 72.1121581 44 74.875 C42.70201838 75.63874742 41.40513138 76.40435835 40.109375 77.171875 C36.75759677 79.14719179 33.39343742 81.09678749 30 83 C29.28714844 83.41137207 28.57429688 83.82274414 27.83984375 84.24658203 C23.86147052 85.87573009 18.70949659 84.15766591 14.625 83.25 C9.1086907 82.86956488 3.93283873 84.53358063 -1 87 C-6.016694 87.60546307 -8.97356703 87.45708014 -13.1875 84.5625 C-18.39442842 80.14636741 -21.47882585 75.56278067 -22.4765625 68.7421875 C-22.88617679 59.27794157 -22.88617679 59.27794157 -19.625 55.25 C-17 53 -17 53 -15 52 C-15.05800781 51.29875 -15.11601563 50.5975 -15.17578125 49.875 C-15.50626567 42.92538476 -14.70494066 38.28808824 -10 33 C-7 31 -7 31 -3 31 C-3.01047363 30.44650879 -3.02094727 29.89301758 -3.03173828 29.32275391 C-3.35827245 9.46203644 -3.35827245 9.46203644 -1 1 C-0.67 0.67 -0.34 0.34 0 0 Z " fill="#D26F6F" transform="translate(83,33)"/>
<path d="M0 0 C2.375 0.3125 2.375 0.3125 5 1 C8.27472505 5.91208757 7.36893287 11.41462499 7.375 17.1875 C7.39949219 18.39470703 7.42398438 19.60191406 7.44921875 20.84570312 C7.49318568 34.24829026 7.49318568 34.24829026 3 39 C-1.45688396 42.34398113 -6.16924936 45.1121581 -11 47.875 C-12.29798162 48.63874742 -13.59486862 49.40435835 -14.890625 50.171875 C-18.24240323 52.14719179 -21.60656258 54.09678749 -25 56 C-25.71285156 56.41008301 -26.42570312 56.82016602 -27.16015625 57.24267578 C-32.16696557 59.30359968 -39.04824829 56.54742241 -44 55 C-43.195625 54.236875 -42.39125 53.47375 -41.5625 52.6875 C-37.7660897 48.70589896 -37.76267836 45.55359973 -37.85546875 40.33203125 C-38.29752066 33.19946393 -41.19019365 28.09728903 -46 23 C-50.75721194 19.02265887 -55.02497503 18.5807 -61 19 C-61 15.66666667 -61 12.33333333 -61 9 C-55.77539586 7.13025414 -51.53405254 9.18846266 -46.5625 10.9375 C-37.88263698 14.35417781 -37.88263698 14.35417781 -28.99682617 13.12817383 C-26.72853583 11.95885061 -24.51930448 10.71893176 -22.3125 9.4375 C-20.81381232 8.57292147 -19.31008788 7.71699817 -17.80078125 6.87109375 C-16.81331909 6.29766235 -16.81331909 6.29766235 -15.8059082 5.71264648 C-14 5 -14 5 -11 6 C-11.66 6.66 -12.32 7.32 -13 8 C-11.68 7.34 -10.36 6.68 -9 6 C-9 13 -9 20 -9 27 C-10.32 27 -11.64 27 -13 27 C-13.33 28.32 -13.66 29.64 -14 31 C-12.35 30.67 -10.7 30.34 -9 30 C-8.505 36.435 -8.505 36.435 -8 43 C-7.34 41.02 -6.68 39.04 -6 37 C-5.67 36.67 -5.34 36.34 -5 36 C-4.76807135 34.48530552 -4.58784762 32.96245438 -4.4375 31.4375 C-4.35371094 30.61121094 -4.26992187 29.78492187 -4.18359375 28.93359375 C-4.09271484 27.97646484 -4.09271484 27.97646484 -4 27 C-1.69 27.33 0.62 27.66 3 28 C1.35 27.67 -0.3 27.34 -2 27 C-2.36923077 20.6 -2.36923077 20.6 -0.5 17.5625 C-0.005 17.046875 0.49 16.53125 1 16 C-0.65 16.66 -2.3 17.32 -4 18 C-4 16.68 -4 15.36 -4 14 C-4.66 14 -5.32 14 -6 14 C-5.95875 13.071875 -5.9175 12.14375 -5.875 11.1875 C-5.72863661 7.84190281 -5.72863661 7.84190281 -8 5 C-3.375 2 -3.375 2 0 2 C0 1.34 0 0.68 0 0 Z " fill="#B40D0D" transform="translate(138,60)"/>
<path d="M0 0 C0 5.61 0 11.22 0 17 C-1.32 17 -2.64 17 -4 17 C-4.33 18.32 -4.66 19.64 -5 21 C-3.35 20.67 -1.7 20.34 0 20 C0.53439513 24.4466953 0.76618562 28.5719755 0 33 C-2.5243143 35.96506759 -5.52810462 37.33392017 -9 39 C-10.46804778 39.94338466 -11.92719849 40.90082872 -13.375 41.875 C-16.01178401 43.60030312 -16.73449375 44 -20 44 C-20.07417023 39.49767666 -20.1286105 34.99570909 -20.16479492 30.49291992 C-20.17987936 28.96128139 -20.20034978 27.42968602 -20.22631836 25.89819336 C-20.26271847 23.69634346 -20.27972913 21.49506467 -20.29296875 19.29296875 C-20.30845261 18.60849167 -20.32393646 17.92401459 -20.33988953 17.21879578 C-20.3409015 14.35857488 -20.30353337 12.44608436 -18.66918945 10.04418945 C-17 9 -17 9 -14 9 C-14 8.34 -14 7.68 -14 7 C-11.85550326 5.8308168 -9.70950787 4.66455505 -7.5625 3.5 C-6.95083984 3.16613281 -6.33917969 2.83226563 -5.70898438 2.48828125 C-1.11328125 0 -1.11328125 0 0 0 Z " fill="#AF0202" transform="translate(129,70)"/>
<path d="M0 0 C1.98 0.66 3.96 1.32 6 2 C5.67515625 3.45019531 5.67515625 3.45019531 5.34375 4.9296875 C3.73304599 12.37069979 2.51330611 19.33907758 3 27 C4.98 27.99 6.96 28.98 9 30 C9.33 29.67 9.66 29.34 10 29 C7.69 28.01 5.38 27.02 3 26 C3.35161161 17.58557044 4.09169144 9.93840199 7 2 C7.99 3.485 7.99 3.485 9 5 C9.99 5.33 10.98 5.66 12 6 C12.33 5.34 12.66 4.68 13 4 C14.22517308 9.66642551 14.09228867 15.23708518 14 21 C13.67 21 13.34 21 13 21 C12.73067479 25.65052872 12.73067479 25.65052872 14 30 C14.02505615 29.25314941 14.0501123 28.50629883 14.07592773 27.73681641 C14.19168213 24.36602733 14.31450128 20.99553217 14.4375 17.625 C14.47681641 16.449375 14.51613281 15.27375 14.55664062 14.0625 C14.59853516 12.94101562 14.64042969 11.81953125 14.68359375 10.6640625 C14.72025146 9.62717285 14.75690918 8.5902832 14.79467773 7.52197266 C15 5 15 5 16 3 C22.75 3.75 22.75 3.75 25 6 C25.99 5.67 26.98 5.34 28 5 C28.33 4.34 28.66 3.68 29 3 C30.32 3 31.64 3 33 3 C33 3.66 33 4.32 33 5 C27.375 8 27.375 8 24 8 C24.01571045 8.77714355 24.0314209 9.55428711 24.04760742 10.35498047 C24.10980351 13.8615802 24.14894207 17.36806413 24.1875 20.875 C24.21263672 22.09832031 24.23777344 23.32164063 24.26367188 24.58203125 C24.27333984 25.74863281 24.28300781 26.91523437 24.29296875 28.1171875 C24.3086792 29.19597168 24.32438965 30.27475586 24.34057617 31.38623047 C24.22818604 32.24877441 24.1157959 33.11131836 24 34 C23.01 34.66 22.02 35.32 21 36 C20.8949827 25.60328698 20.97527638 15.35702803 22 5 C20.14034925 6.85965075 20.75912451 9.94889119 20.68359375 12.44140625 C20.64169922 13.74658203 20.59980469 15.05175781 20.55664062 16.39648438 C20.51682392 17.7851533 20.47711175 19.17382522 20.4375 20.5625 C20.39432011 21.95509183 20.350706 23.34767028 20.30664062 24.74023438 C20.20014124 28.16004801 20.09813077 31.57993763 20 35 C12.78069368 33.55613874 5.94889267 31.42211826 -1 29 C-1.02897435 24.72918086 -1.04678996 20.45838691 -1.0625 16.1875 C-1.07087891 14.97255859 -1.07925781 13.75761719 -1.08789062 12.50585938 C-1.09111328 11.34248047 -1.09433594 10.17910156 -1.09765625 8.98046875 C-1.10289307 7.90692139 -1.10812988 6.83337402 -1.11352539 5.72729492 C-1 3 -1 3 0 0 Z " fill="#B00404" transform="translate(84,37)"/>
<path d="M0 0 C2.375 0.3125 2.375 0.3125 5 1 C8.27472505 5.91208757 7.36893287 11.41462499 7.375 17.1875 C7.39949219 18.39470703 7.42398438 19.60191406 7.44921875 20.84570312 C7.49318568 34.24829026 7.49318568 34.24829026 3 39 C-1.45688396 42.34398113 -6.16924936 45.1121581 -11 47.875 C-12.29798162 48.63874742 -13.59486862 49.40435835 -14.890625 50.171875 C-18.24240323 52.14719179 -21.60656258 54.09678749 -25 56 C-25.71285156 56.41008301 -26.42570312 56.82016602 -27.16015625 57.24267578 C-32.16696557 59.30359968 -39.04824829 56.54742241 -44 55 C-44 54.67 -44 54.34 -44 54 C-41.69 54 -39.38 54 -37 54 C-37 53.01 -37 52.02 -37 51 C-35.68 51 -34.36 51 -33 51 C-33.33 41.1 -33.66 31.2 -34 21 C-33.34 21.33 -32.68 21.66 -32 22 C-32 33.22 -32 44.44 -32 56 C-29.504375 54.5975 -27.00875 53.195 -24.4375 51.75 C-23.28012329 51.0998291 -23.28012329 51.0998291 -22.09936523 50.43652344 C-21.46716064 50.08106445 -20.83495605 49.72560547 -20.18359375 49.359375 C-19.48733887 48.96814453 -18.79108398 48.57691406 -18.07373047 48.17382812 C-16.05305027 47.03002892 -14.04403616 45.86748473 -12.03515625 44.703125 C-9 43 -9 43 -8 43 C-7.690625 42.030625 -7.38125 41.06125 -7.0625 40.0625 C-6 37 -6 37 -5 36 C-4.76807135 34.48530552 -4.58784762 32.96245438 -4.4375 31.4375 C-4.35371094 30.61121094 -4.26992187 29.78492187 -4.18359375 28.93359375 C-4.09271484 27.97646484 -4.09271484 27.97646484 -4 27 C-1.69 27.33 0.62 27.66 3 28 C1.35 27.67 -0.3 27.34 -2 27 C-2.36923077 20.6 -2.36923077 20.6 -0.5 17.5625 C-0.005 17.046875 0.49 16.53125 1 16 C-0.65 16.66 -2.3 17.32 -4 18 C-4 16.68 -4 15.36 -4 14 C-4.66 14 -5.32 14 -6 14 C-5.95875 13.071875 -5.9175 12.14375 -5.875 11.1875 C-5.72863661 7.84190281 -5.72863661 7.84190281 -8 5 C-3.375 2 -3.375 2 0 2 C0 1.34 0 0.68 0 0 Z " fill="#C84D4D" transform="translate(138,60)"/>
<path d="M0 0 C0.33 0.99 0.66 1.98 1 3 C3.00016466 4.20882096 3.00016466 4.20882096 5 5 C4.34 5 3.68 5 3 5 C3 6.32 3 7.64 3 9 C6.98196457 10.05404945 9.98195309 9.84098656 14 9 C14 8.34 14 7.68 14 7 C15.32 6.67 16.64 6.34 18 6 C18 6.99 18 7.98 18 9 C17.030625 9.474375 16.06125 9.94875 15.0625 10.4375 C12.19522563 11.70193947 12.19522563 11.70193947 11 13 C11.66 13.66 12.32 14.32 13 15 C12.625 18.125 12.625 18.125 12 21 C12.66 21 13.32 21 14 21 C14.33 21.99 14.66 22.98 15 24 C15.66 23.34 16.32 22.68 17 22 C19.125 22.375 19.125 22.375 21 23 C20.360625 23.515625 19.72125 24.03125 19.0625 24.5625 C16.44208319 27.65935623 16.30610183 30.02067623 16 34 C18.475 33.505 18.475 33.505 21 33 C21 33.66 21 34.32 21 35 C17.25 36.125 17.25 36.125 15 35 C14.87625 36.27875 14.7525 37.5575 14.625 38.875 C14.25 42.75 14.25 42.75 12 45 C11.28591666 46.98356483 10.61382258 48.98315437 10 51 C9.67 51 9.34 51 9 51 C8.505 44.565 8.505 44.565 8 38 C6.68 38 5.36 38 4 38 C4.33 36.35 4.66 34.7 5 33 C5.99 33 6.98 33 8 33 C8 31.79601562 8 30.59203125 8 29.3515625 C8 24.234375 8 19.1171875 8 14 C6.35 14.66 4.7 15.32 3 16 C3.99 15.01 4.98 14.02 6 13 C5.2575 13.309375 4.515 13.61875 3.75 13.9375 C1.49307824 14.8094925 -0.6450153 15.47667007 -3 16 C-3.33 15.01 -3.66 14.02 -4 13 C-5.32 13.33 -6.64 13.66 -8 14 C-7.67 13.01 -7.34 12.02 -7 11 C-3.4375 9.8125 -3.4375 9.8125 0 9 C0 6.03 0 3.06 0 0 Z " fill="#CF6464" transform="translate(120,53)"/>
<path d="M0 0 C0 5.61 0 11.22 0 17 C-1.32 17 -2.64 17 -4 17 C-4.226875 17.639375 -4.45375 18.27875 -4.6875 18.9375 C-6 21 -6 21 -8.3125 21.5625 C-9.199375 21.706875 -10.08625 21.85125 -11 22 C-12.68029994 22.97691857 -14.34928604 23.97388051 -16 25 C-16.66 25 -17.32 25 -18 25 C-18 25.66 -18 26.32 -18 27 C-18.66 27 -19.32 27 -20 27 C-20.0809723 24.56183415 -20.14046972 22.12635616 -20.1875 19.6875 C-20.21263672 18.99720703 -20.23777344 18.30691406 -20.26367188 17.59570312 C-20.33745469 12.50468887 -20.33745469 12.50468887 -18.67578125 10.01953125 C-17 9 -17 9 -14 9 C-14 8.34 -14 7.68 -14 7 C-11.85550326 5.8308168 -9.70950787 4.66455505 -7.5625 3.5 C-6.95083984 3.16613281 -6.33917969 2.83226563 -5.70898438 2.48828125 C-1.11328125 0 -1.11328125 0 0 0 Z " fill="#AF0101" transform="translate(129,70)"/>
<path d="M0 0 C9.16404142 1.36693464 18.71572276 3.76153257 27 8 C28.40912096 10.81824192 28.11183553 13.17251282 28.09765625 16.3203125 C28.09443359 17.57714844 28.09121094 18.83398438 28.08789062 20.12890625 C28.07951172 21.44761719 28.07113281 22.76632813 28.0625 24.125 C28.05748489 25.46484211 28.05292201 26.804686 28.04882812 28.14453125 C28.03701086 31.42973206 28.02053617 34.71484397 28 38 C26.68 38 25.36 38 24 38 C24 38.99 24 39.98 24 41 C22.68 40.67 21.36 40.34 20 40 C20.495 39.195625 20.99 38.39125 21.5 37.5625 C24.23814283 31.05941077 23.60740304 24.5185076 21 18 C17.63378375 12.30001721 14.14452463 8.54256191 8 6 C5.23545037 5.70848334 2.7922682 5.80405135 0 6 C0 4.02 0 2.04 0 0 Z " fill="#B00404" transform="translate(77,73)"/>
<path d="M0 0 C3 2 3 2 3.73046875 4.6015625 C4.15364583 7.40104167 4.57682292 10.20052083 5 13 C9.29 14.32 13.58 15.64 18 17 C17.01 17.33 16.02 17.66 15 18 C15 18.66 15 19.32 15 20 C9.04296875 21.7578125 9.04296875 21.7578125 7 22 C6.01 21.34 5.02 20.68 4 20 C3.8125 17.375 3.8125 17.375 4 15 C3.34 14.67 2.68 14.34 2 14 C2.061875 14.886875 2.12375 15.77375 2.1875 16.6875 C1 20 1 20 -1.515625 21.51171875 C-4.30679462 22.76058823 -7.15193844 23.88696445 -10 25 C-10 18.73 -10 12.46 -10 6 C-3 2 -3 2 -1 2 C-0.67 1.34 -0.34 0.68 0 0 Z " fill="#B00303" transform="translate(119,42)"/>
<path d="M0 0 C1.56356943 0.24322191 3.12665628 0.48985938 4.6875 0.75 C8.59421459 1.17234752 12.50360572 0.9628731 16.42578125 0.83984375 C19 1 19 1 21 3 C20.01 3.99 19.02 4.98 18 6 C18.99 7.485 18.99 7.485 20 9 C18.68 9 17.36 9 16 9 C16 17.25 16 25.5 16 34 C15.01 34.495 15.01 34.495 14 35 C12.81362257 31.44086771 12.85384654 28.201855 12.875 24.5 C12.86919922 23.48486328 12.86919922 23.48486328 12.86328125 22.44921875 C12.86937584 19.35926233 13.0155977 16.95320689 14 14 C13.61067144 11.85744207 13.61067144 11.85744207 13 10 C12.360625 9.855625 11.72125 9.71125 11.0625 9.5625 C9 9 9 9 8 8 C7.49133331 10.35258344 6.9929375 12.70661404 6.5 15.0625 C6.28537109 16.04766602 6.28537109 16.04766602 6.06640625 17.05273438 C5.16047545 21.43139988 4.85968854 25.50418704 5 30 C7.64 30.99 10.28 31.98 13 33 C12.67 33.66 12.34 34.32 12 35 C5.25 33.25 5.25 33.25 3 31 C1.65693279 22.71484516 4.19722053 14.04812264 6 6 C3.525 5.01 3.525 5.01 1 4 C1 4.99 1 5.98 1 7 C0.34 7 -0.32 7 -1 7 C-1 14.92 -1 22.84 -1 31 C-2.32 31.33 -3.64 31.66 -5 32 C-4.34 31.67 -3.68 31.34 -3 31 C-3.01571045 30.16976318 -3.01571045 30.16976318 -3.03173828 29.32275391 C-3.35827245 9.46203644 -3.35827245 9.46203644 -1 1 C-0.67 0.67 -0.34 0.34 0 0 Z " fill="#C74949" transform="translate(83,33)"/>
<path d="M0 0 C0.66 0 1.32 0 2 0 C2 0.66 2 1.32 2 2 C3.65 1.67 5.3 1.34 7 1 C6.67 1.66 6.34 2.32 6 3 C6.99 3 7.98 3 9 3 C8.79375 4.0725 8.5875 5.145 8.375 6.25 C7.81476359 9.79355656 7.81476359 9.79355656 8.5625 12.375 C10.70495119 14.79690135 12.8794393 14.7286469 16 15 C16.38922918 16.28745036 16.76098036 17.58019597 17.125 18.875 C17.33382812 19.59429687 17.54265625 20.31359375 17.7578125 21.0546875 C17.83773437 21.69664063 17.91765625 22.33859375 18 23 C15.66457643 25.33542357 14.95323569 25.39362193 11.75 25.5625 C8.9196391 25.50334455 7.46646476 25.34734608 5.1796875 23.64453125 C3.59786137 21.84411106 2.28284233 20.02294367 1 18 C0.38125 17.05125 -0.2375 16.1025 -0.875 15.125 C-2.33595011 11.06680525 -2.62689058 7.27425394 -2 3 C-1.34 2.01 -0.68 1.02 0 0 Z " fill="#C43F3F" transform="translate(65,91)"/>
<path d="M0 0 C0.33 0 0.66 0 1 0 C1.08692074 4.27070558 1.14036515 8.54118458 1.1875 12.8125 C1.21263672 14.02744141 1.23777344 15.24238281 1.26367188 16.49414062 C1.27817383 18.23920898 1.27817383 18.23920898 1.29296875 20.01953125 C1.31653442 21.62985229 1.31653442 21.62985229 1.34057617 23.27270508 C1 26 1 26 -0.33081055 27.8112793 C-2 29 -2 29 -5 30 C-5.33 30.66 -5.66 31.32 -6 32 C-4.35 32 -2.7 32 -1 32 C-2.98 32.495 -2.98 32.495 -5 33 C-4.67 34.65 -4.34 36.3 -4 38 C-2.515 37.8453125 -2.515 37.8453125 -1 37.6875 C3.89865185 37.6875 7.26135142 40.02050932 11 43 C17.19780117 49.70032558 19.33862529 55.79060342 19.21875 64.78125 C18.89553973 68.05952556 17.84564101 70.29745423 16 73 C13.9375 74.4375 13.9375 74.4375 12 75 C11.34 74.67 10.68 74.34 10 74 C10.474375 73.5875 10.94875 73.175 11.4375 72.75 C13.90550364 69.98583593 13.99585274 67.64199611 14.01953125 63.9765625 C13.48495988 55.32255804 11.9937849 50.72452779 5.6875 44.6875 C2.24314616 41.8774383 -0.47901126 41 -5 41 C-7.84902067 41.81971716 -7.84902067 41.81971716 -10 43 C-10 42.34 -10 41.68 -10 41 C-9.01 40.505 -9.01 40.505 -8 40 C-7.53348793 37.87423218 -7.53348793 37.87423218 -7.375 35.4375 C-7.30023438 34.61121094 -7.22546875 33.78492188 -7.1484375 32.93359375 C-7.09945312 32.29550781 -7.05046875 31.65742187 -7 31 C-7.66 30.67 -8.32 30.34 -9 30 C-8.34 30 -7.68 30 -7 30 C-6.67 28.02 -6.34 26.04 -6 24 C-4.35 24 -2.7 24 -1 24 C-0.67 16.08 -0.34 8.16 0 0 Z " fill="#CD6060" transform="translate(82,40)"/>
<path d="M0 0 C5.77180606 1.07296395 10.11640339 6.09359692 13.9375 10.25 C16.13363417 13.58206564 16.37772181 16.7469392 16.6875 20.6875 C16.83445312 22.35619141 16.83445312 22.35619141 16.984375 24.05859375 C16.93601845 27.35086901 16.46840481 29.35481948 14.9375 32.25 C12.8125 33.5625 12.8125 33.5625 10.9375 34.25 C11.2675 33.26 11.5975 32.27 11.9375 31.25 C10.9475 31.91 9.9575 32.57 8.9375 33.25 C8.99550781 32.57195312 9.05351563 31.89390625 9.11328125 31.1953125 C9.50760618 23.06095248 7.90714229 16.77040418 2.4453125 10.55078125 C-0.49257208 7.89450737 -3.12588004 6.59734882 -7.0625 6.25 C-6.7325 5.59 -6.4025 4.93 -6.0625 4.25 C1.60566143 4.28408072 1.60566143 4.28408072 4.87109375 6.65234375 C6.3040059 8.11274582 7.63099705 9.67549644 8.9375 11.25 C6.02125852 6.76176759 6.02125852 6.76176759 1.37890625 4.40625 C-1.09929426 3.92818579 -3.55486333 3.53241345 -6.0625 3.25 C-3.4453125 0.28125 -3.4453125 0.28125 0 0 Z " fill="#B71717" transform="translate(80.0625,79.75)"/>
<path d="M0 0 C0.33 0 0.66 0 1 0 C1.01417969 0.76183594 1.02835938 1.52367188 1.04296875 2.30859375 C1.42478797 10.57446396 3.20407627 16.25778366 8.37890625 22.72265625 C10.51682729 24.40723499 11.86637491 24.40165033 14.5625 24.375 C15.34753906 24.38273437 16.13257812 24.39046875 16.94140625 24.3984375 C17.62074219 24.26695313 18.30007812 24.13546875 19 24 C19.66 23.01 20.32 22.02 21 21 C20.34 20.67 19.68 20.34 19 20 C19 18.35 19 16.7 19 15 C18.401875 15.20625 17.80375 15.4125 17.1875 15.625 C15 16 15 16 12 14 C12.33 13.34 12.66 12.68 13 12 C15.475 12.99 15.475 12.99 18 14 C17.40138258 11.64828869 16.73075648 9.3140622 16 7 C15.34 6.67 14.68 6.34 14 6 C14.33 5.01 14.66 4.02 15 3 C16.37562854 4.28965176 17.70766393 5.62689293 19 7 C19 7.66 19 8.32 19 9 C19.99 8.67 20.98 8.34 22 8 C24.25186597 9.78700356 24.94608001 10.72669565 25.51171875 13.59375 C25.56972656 14.5528125 25.62773438 15.511875 25.6875 16.5 C25.78611328 17.93859375 25.78611328 17.93859375 25.88671875 19.40625 C25.96809299 21.26943949 26 23.13503436 26 25 C25.195625 25.28875 24.39125 25.5775 23.5625 25.875 C20.8673532 26.73262568 20.8673532 26.73262568 20 29 C15.02298945 29.53325113 11.99286852 29.45292623 7.8125 26.5625 C2.57018691 22.11635675 -0.6566659 17.50919383 -1.3359375 10.56640625 C-1.37125683 7.34175108 -1.33410938 4.20745001 -1 1 C-0.67 0.67 -0.34 0.34 0 0 Z " fill="#D16B6B" transform="translate(62,91)"/>
<path d="M0 0 C0.66 0 1.32 0 2 0 C2 0.99 2 1.98 2 3 C1.67 3.33 1.34 3.66 1 4 C1.99 4 2.98 4 4 4 C4 7.63 4 11.26 4 15 C3.05125 15.309375 2.1025 15.61875 1.125 15.9375 C-1.86080408 16.87394742 -1.86080408 16.87394742 -4 18 C-4 16.68 -4 15.36 -4 14 C-4.66 14 -5.32 14 -6 14 C-5.95875 13.071875 -5.9175 12.14375 -5.875 11.1875 C-5.72863661 7.84190281 -5.72863661 7.84190281 -8 5 C-3.375 2 -3.375 2 0 2 C0 1.34 0 0.68 0 0 Z " fill="#B00303" transform="translate(138,60)"/>
<path d="M0 0 C0.69649658 0.17805176 1.39299316 0.35610352 2.1105957 0.53955078 C2.86791992 0.72646484 3.62524414 0.91337891 4.40551758 1.10595703 C5.19120117 1.31349609 5.97688477 1.52103516 6.78637695 1.73486328 C7.58366211 1.93466797 8.38094727 2.13447266 9.20239258 2.34033203 C11.17080519 2.83538191 13.1352557 3.34613751 15.09887695 3.85986328 C15.72387695 6.17236328 15.72387695 6.17236328 16.09887695 8.85986328 C14.09887695 11.85986328 14.09887695 11.85986328 12.09887695 12.85986328 C12.09887695 11.53986328 12.09887695 10.21986328 12.09887695 8.85986328 C9.12887695 10.17986328 6.15887695 11.49986328 3.09887695 12.85986328 C3.09887695 11.86986328 3.09887695 10.87986328 3.09887695 9.85986328 C8.84887695 6.85986328 8.84887695 6.85986328 11.09887695 6.85986328 C11.09887695 6.19986328 11.09887695 5.53986328 11.09887695 4.85986328 C9.77887695 4.85986328 8.45887695 4.85986328 7.09887695 4.85986328 C6.76887695 5.84986328 6.43887695 6.83986328 6.09887695 7.85986328 C4.03637695 8.54736328 4.03637695 8.54736328 2.09887695 8.85986328 C1.76887695 8.19986328 1.43887695 7.53986328 1.09887695 6.85986328 C-1.24499114 5.94955056 -1.24499114 5.94955056 -3.96362305 5.23486328 C-5.34227539 4.84427734 -5.34227539 4.84427734 -6.7487793 4.44580078 C-7.81418945 4.15576172 -7.81418945 4.15576172 -8.90112305 3.85986328 C-8.00393555 3.42673828 -8.00393555 3.42673828 -7.08862305 2.98486328 C-1.12366698 -0.08282841 -1.12366698 -0.08282841 0 0 Z " fill="#CD5E5E" transform="translate(105.901123046875,35.14013671875)"/>
<path d="M0 0 C0.33 0 0.66 0 1 0 C1.08692074 4.27070558 1.14036515 8.54118458 1.1875 12.8125 C1.21263672 14.02744141 1.23777344 15.24238281 1.26367188 16.49414062 C1.27817383 18.23920898 1.27817383 18.23920898 1.29296875 20.01953125 C1.31653442 21.62985229 1.31653442 21.62985229 1.34057617 23.27270508 C1 26 1 26 -0.33081055 27.8112793 C-2 29 -2 29 -5 30 C-5.33 30.66 -5.66 31.32 -6 32 C-4.35 32 -2.7 32 -1 32 C-2.98 32.495 -2.98 32.495 -5 33 C-4.67 34.65 -4.34 36.3 -4 38 C-2.6696875 37.8453125 -2.6696875 37.8453125 -1.3125 37.6875 C3.10322011 38.10407737 4.13976206 39.69972545 7 43 C7.928125 43.928125 8.85625 44.85625 9.8125 45.8125 C10.534375 46.534375 11.25625 47.25625 12 48 C11.67 48.66 11.34 49.32 11 50 C10.43152344 49.43410156 9.86304687 48.86820313 9.27734375 48.28515625 C4.36941241 43.59459212 4.36941241 43.59459212 -1.75 40.875 C-4.99761923 40.99990843 -7.1251017 41.51899178 -10 43 C-10 42.34 -10 41.68 -10 41 C-9.01 40.505 -9.01 40.505 -8 40 C-7.53348793 37.87423218 -7.53348793 37.87423218 -7.375 35.4375 C-7.30023438 34.61121094 -7.22546875 33.78492188 -7.1484375 32.93359375 C-7.09945312 32.29550781 -7.05046875 31.65742187 -7 31 C-7.66 30.67 -8.32 30.34 -9 30 C-8.34 30 -7.68 30 -7 30 C-6.67 28.02 -6.34 26.04 -6 24 C-4.35 24 -2.7 24 -1 24 C-0.67 16.08 -0.34 8.16 0 0 Z " fill="#D78080" transform="translate(82,40)"/>
<path d="M0 0 C5.22370099 -0.08291589 8.97569436 0.38863601 12.875 4.0625 C17.10087114 8.86685466 19.07514917 13.80667435 19.375 20.1875 C18.99642437 24.0363522 18.2927646 25.94298054 16 29 C14.81975671 26.63951342 15.04589756 25.59766742 15.25 23 C15.31217388 16.57536617 12.71282093 11.10341033 8.5078125 6.29296875 C5.56423908 3.64680301 2.93521015 2.34722443 -1 2 C-0.67 1.34 -0.34 0.68 0 0 Z " fill="#B00404" transform="translate(74,84)"/>
<path d="M0 0 C0.99 0 1.98 0 3 0 C3.33 0.66 3.66 1.32 4 2 C4.66 1.34 5.32 0.68 6 0 C8.125 0.375 8.125 0.375 10 1 C9.360625 1.515625 8.72125 2.03125 8.0625 2.5625 C5.44208319 5.65935623 5.30610183 8.02067623 5 12 C6.65 11.67 8.3 11.34 10 11 C10 11.66 10 12.32 10 13 C6.25 14.125 6.25 14.125 4 13 C3.814375 14.918125 3.814375 14.918125 3.625 16.875 C3.25 20.75 3.25 20.75 1 23 C0.35232207 25.57061311 0.35232207 25.57061311 0 28 C-0.33 28 -0.66 28 -1 28 C-1.02886338 23.52084672 -1.04675187 19.04171709 -1.0625 14.5625 C-1.07087891 13.28310547 -1.07925781 12.00371094 -1.08789062 10.68554688 C-1.09111328 9.47060547 -1.09433594 8.25566406 -1.09765625 7.00390625 C-1.10289307 5.87799072 -1.10812988 4.7520752 -1.11352539 3.59204102 C-1 1 -1 1 0 0 Z " fill="#E09B9B" transform="translate(131,75)"/>
<path d="M0 0 C6.75 0.75 6.75 0.75 9 3 C9.99 2.67 10.98 2.34 12 2 C12.33 1.34 12.66 0.68 13 0 C14.32 0 15.64 0 17 0 C17 0.66 17 1.32 17 2 C11.375 5 11.375 5 8 5 C8.02356567 6.16571533 8.02356567 6.16571533 8.04760742 7.35498047 C8.10980351 10.8615802 8.14894207 14.36806413 8.1875 17.875 C8.21263672 19.09832031 8.23777344 20.32164063 8.26367188 21.58203125 C8.27333984 22.74863281 8.28300781 23.91523437 8.29296875 25.1171875 C8.31653442 26.73536377 8.31653442 26.73536377 8.34057617 28.38623047 C8.17199097 29.68004639 8.17199097 29.68004639 8 31 C7.01 31.66 6.02 32.32 5 33 C4.8949827 22.60328698 4.97527638 12.35702803 6 2 C4.68 2.33 3.36 2.66 2 3 C1.34 2.01 0.68 1.02 0 0 Z " fill="#B51010" transform="translate(100,40)"/>
<path d="M0 0 C1.50606515 3.01213029 1.12160331 6.11282622 1.09765625 9.4140625 C1.0962413 10.14370209 1.09482635 10.87334167 1.09336853 11.62509155 C1.08776531 13.95843585 1.07521235 16.29168464 1.0625 18.625 C1.05748541 20.20572778 1.05292243 21.78645707 1.04882812 23.3671875 C1.03779484 27.24482854 1.02052811 31.12239807 1 35 C-0.98 35.495 -0.98 35.495 -3 36 C-3.07427649 31.51598515 -3.12866111 27.03229826 -3.16479492 22.54785156 C-3.17986151 21.0230485 -3.20031876 19.49828864 -3.22631836 17.97363281 C-3.26279706 15.77918834 -3.27974714 13.58531784 -3.29296875 11.390625 C-3.3086792 10.07094727 -3.32438965 8.75126953 -3.34057617 7.39160156 C-2.9866721 3.86727513 -2.41890223 2.51097117 0 0 Z " fill="#BF3030" transform="translate(109,80)"/>
<path d="M0 0 C3 2 3 2 3.73046875 4.6015625 C4.36523438 8.80078125 4.36523438 8.80078125 5 13 C9.29 14.32 13.58 15.64 18 17 C17.01 17.33 16.02 17.66 15 18 C15 18.66 15 19.32 15 20 C9.04296875 21.7578125 9.04296875 21.7578125 7 22 C6.01 21.34 5.02 20.68 4 20 C4.020625 19.195625 4.04125 18.39125 4.0625 17.5625 C4.041875 16.716875 4.02125 15.87125 4 15 C3.34386719 14.57976563 2.68773438 14.15953125 2.01171875 13.7265625 C0 12 0 12 -0.390625 9.08203125 C-0.34421875 8.00308594 -0.2978125 6.92414062 -0.25 5.8125 C-0.21390625 4.72582031 -0.1778125 3.63914063 -0.140625 2.51953125 C-0.09421875 1.68808594 -0.0478125 0.85664062 0 0 Z " fill="#C33E3E" transform="translate(119,42)"/>
<path d="M0 0 C6.48545758 0.91023966 9.47027292 2.70891442 13.5234375 7.86328125 C17.91689462 14.22100888 18.40671597 19.51341336 18 27 C19.67110042 24.03821227 20.32682752 21.62928808 20.625 18.25 C20.69976562 17.45078125 20.77453125 16.6515625 20.8515625 15.828125 C20.90054688 15.22484375 20.94953125 14.6215625 21 14 C21.33 14 21.66 14 22 14 C22.05429959 15.74965358 22.09292823 17.49979787 22.125 19.25 C22.14820312 20.22453125 22.17140625 21.1990625 22.1953125 22.203125 C21.99862781 25.0196498 21.44568916 26.60949036 20 29 C20.66 29.66 21.32 30.32 22 31 C16.06 32.485 16.06 32.485 10 34 C13 31 13 31 16 29 C17.6464474 21.09705248 15.22707521 14.59178684 11 8 C9.1265786 5.35136974 8.1353088 4.25156168 4.97265625 3.55078125 C2.99138263 3.28266514 0.99490453 3.13299364 -1 3 C-0.67 2.01 -0.34 1.02 0 0 Z " fill="#CB5656" transform="translate(72,85)"/>
<path d="M0 0 C-0.20625 1.0725 -0.4125 2.145 -0.625 3.25 C-1.18523641 6.79355656 -1.18523641 6.79355656 -0.4375 9.375 C1.70495119 11.79690135 3.8794393 11.7286469 7 12 C6.67 13.32 6.34 14.64 6 16 C3.8125 16.75 3.8125 16.75 1 17 C-2.38594692 14.8739403 -4.75586365 12.84551234 -6 9 C-6.53435115 3.76335878 -6.53435115 3.76335878 -4.6875 1.125 C-3 0 -3 0 0 0 Z " fill="#B10606" transform="translate(74,94)"/>
<path d="M0 0 C1.36853928 4.15280885 0.52532911 6.84809134 -0.90625 10.87109375 C-2.56319728 14.09622328 -4.80459984 15.43629354 -8 17 C-8.66 17 -9.32 17 -10 17 C-9.855625 16.360625 -9.71125 15.72125 -9.5625 15.0625 C-8.82763202 11.06155212 -8.41418889 7.04495104 -8 3 C-5.69 3.33 -3.38 3.66 -1 4 C-0.67 2.68 -0.34 1.36 0 0 Z " fill="#B10505" transform="translate(142,84)"/>
<path d="M0 0 C0.66 0.66 1.32 1.32 2 2 C-1.55994763 6.17906895 -6.08663054 8.68559431 -11 11 C-11.66 11 -12.32 11 -13 11 C-13 11.66 -13 12.32 -13 13 C-14.65 13.33 -16.3 13.66 -18 14 C-18 13.67 -18 13.34 -18 13 C-20.97 12.67 -23.94 12.34 -27 12 C-27 11.67 -27 11.34 -27 11 C-25.741875 10.979375 -24.48375 10.95875 -23.1875 10.9375 C-17.69458884 10.357933 -14.07809827 7.79153848 -9.59765625 4.72265625 C-6.49397688 2.66442677 -3.47223472 1.31173312 0 0 Z " fill="#C54444" transform="translate(128,66)"/>
<path d="M0 0 C0.33 0 0.66 0 1 0 C1.01417969 0.76183594 1.02835938 1.52367188 1.04296875 2.30859375 C1.38903045 9.8003618 2.75386006 14.83298723 7 21 C7.598125 21.969375 8.19625 22.93875 8.8125 23.9375 C11.96182676 26.90686523 14.77382411 27.22520109 19 28 C19 28.33 19 28.66 19 29 C14.3656808 29.5792899 11.76198735 29.24496466 7.875 26.5625 C2.57931315 22.13225614 -0.65347069 17.54185194 -1.3359375 10.56640625 C-1.37125683 7.34175108 -1.33410938 4.20745001 -1 1 C-0.67 0.67 -0.34 0.34 0 0 Z " fill="#CE6060" transform="translate(62,91)"/>
<path d="M0 0 C3 1 3 1 5 4 C5.22705078 6.8190918 5.22705078 6.8190918 5.1953125 10.19921875 C5.18564453 12.01196289 5.18564453 12.01196289 5.17578125 13.86132812 C5.15902344 15.12396484 5.14226562 16.38660156 5.125 17.6875 C5.11597656 18.96173828 5.10695312 20.23597656 5.09765625 21.54882812 C5.07405641 24.69940627 5.04113194 27.84960983 5 31 C4.67 31 4.34 31 4 31 C3.67 27.04 3.34 23.08 3 19 C2.34 19 1.68 19 1 19 C1.33 14.05 1.66 9.1 2 4 C0.02 4.33 -1.96 4.66 -4 5 C-2.68 4.34 -1.36 3.68 0 3 C0 2.01 0 1.02 0 0 Z " fill="#D47575" transform="translate(140,60)"/>
<path d="M0 0 C7.08703739 0.54515672 13.32796106 2.60918605 20 5 C20 5.66 20 6.32 20 7 C22.97 7.495 22.97 7.495 26 8 C26 8.33 26 8.66 26 9 C19.3801072 8.47650497 13.68234447 7.15274936 7.4375 4.9375 C6.61958984 4.65583984 5.80167969 4.37417969 4.95898438 4.08398438 C2.96976517 3.39764559 0.9844476 2.7000155 -1 2 C-0.67 1.34 -0.34 0.68 0 0 Z " fill="#CB5A5A" transform="translate(81,66)"/>
<path d="M0 0 C-2.45740296 1.64723726 -4.91587001 3.29284464 -7.375 4.9375 C-8.07367188 5.40607422 -8.77234375 5.87464844 -9.4921875 6.35742188 C-10.1625 6.80537109 -10.8328125 7.25332031 -11.5234375 7.71484375 C-12.14138184 8.12855225 -12.75932617 8.54226074 -13.39599609 8.96850586 C-16.73048211 11.11282906 -19.05590841 11.08574112 -23 11 C-19.54580186 7.00467421 -15.59334843 4.97980341 -10.9375 2.6875 C-10.21755859 2.31560547 -9.49761719 1.94371094 -8.75585938 1.56054688 C-3.37186105 -1.12395368 -3.37186105 -1.12395368 0 0 Z " fill="#B20909" transform="translate(127,66)"/>
<path d="M0 0 C2.70535233 4.05802849 2.52813071 7.2386985 2 12 C0.74797411 15.4430712 -0.05411535 17.34074706 -3.0625 19.4375 C-5 20 -5 20 -7 19 C-6.525625 18.5875 -6.05125 18.175 -5.5625 17.75 C-3.83733482 15.817815 -3.43415125 14.51807725 -3 12 C-2.34 12 -1.68 12 -1 12 C-0.87530901 6.42169984 -0.87530901 6.42169984 -2 1 C-1.34 0.67 -0.68 0.34 0 0 Z " fill="#D57979" transform="translate(99,95)"/>
<path d="M0 0 C0 2.25 0 2.25 -1 5 C-4.47388931 7.43795371 -7.73822064 9 -12 9 C-12 7.68 -12 6.36 -12 5 C-10.56705502 4.15885829 -9.12845595 3.32734313 -7.6875 2.5 C-6.88699219 2.0359375 -6.08648437 1.571875 -5.26171875 1.09375 C-3 0 -3 0 0 0 Z " fill="#C74C4C" transform="translate(123,90)"/>
<path d="M0 0 C4.83459583 0.60432448 9.41692128 2.41239757 14 4 C14 4.66 14 5.32 14 6 C15.32 6.66 16.64 7.32 18 8 C16 9 16 9 12.98828125 8.07421875 C11.77527344 7.61660156 10.56226562 7.15898438 9.3125 6.6875 C4.57165521 4.91031973 -0.12132363 3.33396414 -5 2 C-4.360625 1.855625 -3.72125 1.71125 -3.0625 1.5625 C-1.02454854 1.18992819 -1.02454854 1.18992819 0 0 Z " fill="#C64646" transform="translate(86,72)"/>
<path d="M0 0 C0.66 0.33 1.32 0.66 2 1 C2 9.58 2 18.16 2 27 C1.34 27.33 0.68 27.66 0 28 C-1.18637743 24.44086771 -1.14615346 21.201855 -1.125 17.5 C-1.12886719 16.82324219 -1.13273437 16.14648438 -1.13671875 15.44921875 C-1.13062416 12.35926233 -0.9844023 9.95320689 0 7 C0.03954234 4.66700175 0.04401732 2.33291811 0 0 Z " fill="#CD5F5F" transform="translate(97,40)"/>
<path d="M0 0 C0.66 0.33 1.32 0.66 2 1 C2 12.22 2 23.44 2 35 C2.66 35.33 3.32 35.66 4 36 C2.02 35.67 0.04 35.34 -2 35 C-2.33 33.35 -2.66 31.7 -3 30 C-1.68 30 -0.36 30 1 30 C0.67 20.1 0.34 10.2 0 0 Z " fill="#C94F4F" transform="translate(104,81)"/>
<path d="M0 0 C3.26181135 0 5.35822193 0.44487551 7.8515625 2.6015625 C12.64258287 7.88187857 15.70832388 12.49988661 16.3125 19.75 C16 23 16 23 14 26 C13.99742188 25.32195312 13.99484375 24.64390625 13.9921875 23.9453125 C13.67831458 16.39143748 11.90321163 10.8469714 7 5 C4.69659257 3.21716265 2.69024551 2.18370803 0 1 C0 0.67 0 0.34 0 0 Z " fill="#B40F0F" transform="translate(73,87)"/>
<path d="M0 0 C0.99 0.33 1.98 0.66 3 1 C2.67 1.639375 2.34 2.27875 2 2.9375 C0.66943072 7.01236841 0.83340801 10.75190425 1 15 C0.01 15.33 -0.98 15.66 -2 16 C-1.34 13.03 -0.68 10.06 0 7 C-0.66 7 -1.32 7 -2 7 C-2.33 8.32 -2.66 9.64 -3 11 C-3.66 11 -4.32 11 -5 11 C-4.54663921 6.12637153 -3.2910841 3.60957611 0 0 Z " fill="#C74A4A" transform="translate(74,65)"/>
<path d="M0 0 C0 0.99 0 1.98 0 3 C0.66 3.33 1.32 3.66 2 4 C1.01 6.31 0.02 8.62 -1 11 C-2.32 11 -3.64 11 -5 11 C-5.36637589 4.64948454 -5.36637589 4.64948454 -3.625 1.5625 C-2 0 -2 0 0 0 Z " fill="#BE2D2D" transform="translate(141,76)"/>
<path d="M0 0 C0.33 0 0.66 0 1 0 C1.33 1.98 1.66 3.96 2 6 C2.66 6 3.32 6 4 6 C4 6.99 4 7.98 4 9 C1.6875 10.75 1.6875 10.75 -1 12 C-1.99 11.67 -2.98 11.34 -4 11 C-4 10.34 -4 9.68 -4 9 C-5.32 9.33 -6.64 9.66 -8 10 C-7.67 9.01 -7.34 8.02 -7 7 C-3.4375 5.8125 -3.4375 5.8125 0 5 C0 3.35 0 1.7 0 0 Z " fill="#CA5555" transform="translate(120,57)"/>
<path d="M0 0 C3.53412822 1.17804274 4.45765122 2.6054566 6.21484375 5.8125 C7.64252676 9.79012431 7.30149097 13.83774961 7 18 C6.34 17.67 5.68 17.34 5 17 C5 15.35 5 13.7 5 12 C4.401875 12.20625 3.80375 12.4125 3.1875 12.625 C1 13 1 13 -2 11 C-1.67 10.34 -1.34 9.68 -1 9 C1.475 9.99 1.475 9.99 4 11 C3.40138258 8.64828869 2.73075648 6.3140622 2 4 C1.34 3.67 0.68 3.34 0 3 C0 2.01 0 1.02 0 0 Z " fill="#D77F7F" transform="translate(76,94)"/>
<path d="M0 0 C0.73734375 0.00773437 1.4746875 0.01546875 2.234375 0.0234375 C3.34039062 0.01183594 3.34039062 0.01183594 4.46875 0 C9.9810554 0.0201179 9.9810554 0.0201179 12.234375 2.2734375 C8.54032068 4.73614038 6.60160428 4.50329167 2.234375 4.2734375 C0.171875 3.8359375 0.171875 3.8359375 -1.765625 3.2734375 C-3.76350938 2.92764982 -5.76321951 2.59200201 -7.765625 2.2734375 C-5.20613501 -0.28605249 -3.49355305 0.01275019 0 0 Z " fill="#CC5A5A" transform="translate(91.765625,33.7265625)"/>
<path d="M0 0 C2.5 1.125 2.5 1.125 5 3 C5.3125 6.1875 5.3125 6.1875 5 9 C0.125 8.125 0.125 8.125 -1 7 C-1.125 4 -1.125 4 -1 1 C-0.67 0.67 -0.34 0.34 0 0 Z " fill="#B10505" transform="translate(75,96)"/>
<path d="M0 0 C0.66 0.66 1.32 1.32 2 2 C-1.60809503 6.75612527 -6.47436423 7.60804595 -12 9 C-10.53403275 5.0570536 -8.62691725 3.98165412 -4.875 2.25 C-3.96492188 1.82203125 -3.05484375 1.3940625 -2.1171875 0.953125 C-1.06917969 0.48132813 -1.06917969 0.48132813 0 0 Z " fill="#BC2727" transform="translate(128,66)"/>
<path d="M0 0 C0.66 0 1.32 0 2 0 C3.46804563 4.40413689 3.44618225 8.32681656 2.25 12.8125 C0.80558649 15.34022364 -0.30399627 16.0114653 -3 17 C-2.68289062 16.47921875 -2.36578125 15.9584375 -2.0390625 15.421875 C-0.71079489 12.32591291 -0.57635753 9.60595879 -0.375 6.25 C-0.30023438 5.07953125 -0.22546875 3.9090625 -0.1484375 2.703125 C-0.09945312 1.81109375 -0.05046875 0.9190625 0 0 Z " fill="#B10505" transform="translate(94,97)"/>
<path d="M0 0 C1.30062431 3.81516464 0.89369853 7.27561763 0.5625 11.25 C0.46066406 12.51328125 0.35882813 13.7765625 0.25390625 15.078125 C0.17011719 16.04234375 0.08632812 17.0065625 0 18 C2.64 18.99 5.28 19.98 8 21 C7.67 21.66 7.34 22.32 7 23 C0.25 21.25 0.25 21.25 -2 19 C-2.83310886 12.51890314 -1.68942727 6.24484724 0 0 Z " fill="#C95353" transform="translate(88,45)"/>
<path d="M0 0 C3.63 0.66 7.26 1.32 11 2 C11 2.66 11 3.32 11 4 C5.04296875 5.7578125 5.04296875 5.7578125 3 6 C2.01 5.34 1.02 4.68 0 4 C0 2.68 0 1.36 0 0 Z " fill="#B20808" transform="translate(123,58)"/>
<path d="M0 0 C0.598125 0.33 1.19625 0.66 1.8125 1 C4.05386471 2.20787988 4.05386471 2.20787988 7 2 C8.67099977 2.31088368 10.33871537 2.64080332 12 3 C12.33 4.32 12.66 5.64 13 7 C5.7735697 7.61240935 5.7735697 7.61240935 2 4.625 C0 2 0 2 0 0 Z " fill="#B71616" transform="translate(67,109)"/>
<path d="M0 0 C3.82055134 2.13950875 6.49448658 3.78456242 8 8 C7.01 8 6.02 8 5 8 C4.34 7.01 3.68 6.02 3 5 C0.35952748 3.98247445 0.35952748 3.98247445 -2.625 3.3125 C-3.62789063 3.06113281 -4.63078125 2.80976562 -5.6640625 2.55078125 C-6.43492188 2.36902344 -7.20578125 2.18726562 -8 2 C-4.91190305 0.23537317 -3.76687864 0 0 0 Z " fill="#CB5757" transform="translate(76,89)"/>
<path d="M0 0 C0.33 0.99 0.66 1.98 1 3 C3.00016466 4.20882096 3.00016466 4.20882096 5 5 C4.34 5 3.68 5 3 5 C3 6.32 3 7.64 3 9 C5.475 9.99 5.475 9.99 8 11 C4.94736336 11.98120464 3.05263664 11.98120464 0 11 C0.33 10.34 0.66 9.68 1 9 C0.91348369 7.45386986 0.75997364 5.91090613 0.5625 4.375 C0.46066406 3.55773438 0.35882813 2.74046875 0.25390625 1.8984375 C0.17011719 1.27195313 0.08632812 0.64546875 0 0 Z " fill="#D37373" transform="translate(120,53)"/>
<path d="M0 0 C5.70480127 -0.09243891 9.22517626 0.71399808 13.5625 4.5625 C14.72633912 5.69004005 15.8788662 6.82998843 17 8 C16.67 8.66 16.34 9.32 16 10 C15.21625 9.030625 14.4325 8.06125 13.625 7.0625 C10.09847334 3.45967829 6.86610444 3.22416391 1.9765625 3.0078125 C0.99816406 3.00394531 0.99816406 3.00394531 0 3 C0 2.01 0 1.02 0 0 Z " fill="#C95252" transform="translate(73,82)"/>
<path d="M0 0 C0.66 0 1.32 0 2 0 C2 0.99 2 1.98 2 3 C1.0409375 3.1546875 1.0409375 3.1546875 0.0625 3.3125 C-0.618125 3.539375 -1.29875 3.76625 -2 4 C-2.33 4.99 -2.66 5.98 -3 7 C-4.65 6.67 -6.3 6.34 -8 6 C-3.375 2 -3.375 2 0 2 C0 1.34 0 0.68 0 0 Z " fill="#B91F1F" transform="translate(138,60)"/>
<path d="M0 0 C4.455 0.99 4.455 0.99 9 2 C9 2.66 9 3.32 9 4 C9.66 4.33 10.32 4.66 11 5 C5.06 4.01 5.06 4.01 -1 3 C-0.67 2.01 -0.34 1.02 0 0 Z " fill="#BB2424" transform="translate(77,69)"/>
<path d="M0 0 C0.99 0.33 1.98 0.66 3 1 C0.90814081 5.07362052 -0.99242358 6.84207424 -5 9 C-5.66 9.66 -6.32 10.32 -7 11 C-7.33 9.68 -7.66 8.36 -8 7 C-6.20963542 6.05598958 -4.41927083 5.11197917 -2.62890625 4.16796875 C-0.67732013 3.00980201 -0.67732013 3.00980201 0 0 Z " fill="#DF9A9A" transform="translate(70,83)"/>
<path d="M0 0 C3 2 3 2 3.6875 4.125 C3.8421875 5.053125 3.8421875 5.053125 4 6 C3.34 6 2.68 6 2 6 C1.9175 6.598125 1.835 7.19625 1.75 7.8125 C0.79544128 10.5966296 -0.57132271 11.43311142 -3 13 C-3.66 12.67 -4.32 12.34 -5 12 C-4.175 11.505 -3.35 11.01 -2.5 10.5 C0.15002759 8.33727308 0.15002759 8.33727308 0.33203125 5.953125 C0.31441262 3.96574402 0.16504949 1.98059391 0 0 Z " fill="#C44141" transform="translate(68,77)"/>
<path d="M0 0 C-3.65333143 2.63379708 -6.48521602 4.46884894 -11 5 C-11 3.35 -11 1.7 -11 0 C-10.67 0.99 -10.34 1.98 -10 3 C-8.906875 2.319375 -7.81375 1.63875 -6.6875 0.9375 C-3.375 -1.125 -3.375 -1.125 0 0 Z " fill="#CD5E5E" transform="translate(142,98)"/>
<path d="M0 0 C1.9453125 0.2421875 1.9453125 0.2421875 4.125 0.875 C4.84945312 1.07867187 5.57390625 1.28234375 6.3203125 1.4921875 C6.87460938 1.65976563 7.42890625 1.82734375 8 2 C7.67 1.34 7.34 0.68 7 0 C7.99 0 8.98 0 10 0 C10.33 1.32 10.66 2.64 11 4 C7.44757118 5.18414294 6.30169438 4.69535532 2.8125 3.5625 C1.91144531 3.27503906 1.01039062 2.98757812 0.08203125 2.69140625 C-0.60503906 2.46324219 -1.29210937 2.23507813 -2 2 C-1.34 1.34 -0.68 0.68 0 0 Z " fill="#B91E1E" transform="translate(87,65)"/>
<path d="M0 0 C0.33 0 0.66 0 1 0 C1.33 1.98 1.66 3.96 2 6 C0.71349294 6.69710731 -0.57940665 7.38242876 -1.875 8.0625 C-2.59429687 8.44535156 -3.31359375 8.82820313 -4.0546875 9.22265625 C-4.69664063 9.47917969 -5.33859375 9.73570313 -6 10 C-6.66 9.67 -7.32 9.34 -8 9 C-7.67 8.34 -7.34 7.68 -7 7 C-4.6859378 6.26924352 -2.35171131 5.59861742 0 5 C0 3.35 0 1.7 0 0 Z " fill="#C23939" transform="translate(120,57)"/>
<path d="M0 0 C1.65 0 3.3 0 5 0 C5 1.65 5 3.3 5 5 C5.66 5.33 6.32 5.66 7 6 C4.03 5.505 4.03 5.505 1 5 C0.67 3.35 0.34 1.7 0 0 Z " fill="#D88383" transform="translate(101,111)"/>
<path d="M0 0 C0.66 0 1.32 0 2 0 C2.33 1.65 2.66 3.3 3 5 C2.01 5.66 1.02 6.32 0 7 C0 6.34 0 5.68 0 5 C-1.98 5 -3.96 5 -6 5 C-6 4.67 -6 4.34 -6 4 C-4.35 4 -2.7 4 -1 4 C-0.67 2.68 -0.34 1.36 0 0 Z " fill="#C74A4A" transform="translate(80,109)"/>
<path d="M0 0 C1.98 0.495 1.98 0.495 4 1 C3.67 2.32 3.34 3.64 3 5 C1.68 5 0.36 5 -1 5 C-0.67 3.35 -0.34 1.7 0 0 Z " fill="#C95151" transform="translate(125,86)"/>
<path d="M0 0 C0.66 0 1.32 0 2 0 C2 0.99 2 1.98 2 3 C2.66 3.33 3.32 3.66 4 4 C2.35 5.65 0.7 7.3 -1 9 C-1.08886184 5.80097361 -0.91058531 3.07322544 0 0 Z " fill="#B51010" transform="translate(139,76)"/>
<path d="M0 0 C0.433125 0.66 0.86625 1.32 1.3125 2 C2.1478125 2.99 2.1478125 2.99 3 4 C3.99 4 4.98 4 6 4 C6 4.66 6 5.32 6 6 C1.545 7.485 1.545 7.485 -3 9 C-3 8.34 -3 7.68 -3 7 C-2.34 6.67 -1.68 6.34 -1 6 C-0.34227572 2.97065509 -0.34227572 2.97065509 0 0 Z " fill="#DC9090" transform="translate(75,74)"/>
<path d="M0 0 C-2.68841859 2.25245881 -4.64641875 3.88213958 -8 5 C-8.66 4.34 -9.32 3.68 -10 3 C-3.375 -1.125 -3.375 -1.125 0 0 Z " fill="#CB5858" transform="translate(118,112)"/>
<path d="M0 0 C0.99 0 1.98 0 3 0 C3 2.97 3 5.94 3 9 C2.01 9.33 1.02 9.66 0 10 C0.66 7.03 1.32 4.06 2 1 C1.34 0.67 0.68 0.34 0 0 Z " fill="#BB2525" transform="translate(72,71)"/>
<path d="M0 0 C0.99 0 1.98 0 3 0 C3 1.32 3 2.64 3 4 C2.34 4 1.68 4 1 4 C1 4.99 1 5.98 1 7 C0.34 7 -0.32 7 -1 7 C-1.625 5.1875 -1.625 5.1875 -2 3 C-1.34 2.01 -0.68 1.02 0 0 Z " fill="#CB5656" transform="translate(83,33)"/>
<path d="M0 0 C2.97 0.495 2.97 0.495 6 1 C4.75 2.5 4.75 2.5 3 4 C1.68 4 0.36 4 -1 4 C-0.67 2.68 -0.34 1.36 0 0 Z " fill="#C03232" transform="translate(98,34)"/>
<path d="M0 0 C2.97 0.99 5.94 1.98 9 3 C8.67 3.66 8.34 4.32 8 5 C4.5625 4.1875 4.5625 4.1875 1 3 C0.67 2.01 0.34 1.02 0 0 Z " fill="#CE6363" transform="translate(87,63)"/>
<path d="M0 0 C0.33 0 0.66 0 1 0 C1 3.96 1 7.92 1 12 C0.01 12.33 -0.98 12.66 -2 13 C-2 12.01 -2 11.02 -2 10 C-1.34 10 -0.68 10 0 10 C0 6.7 0 3.4 0 0 Z " fill="#CC5D5D" transform="translate(143,66)"/>
</svg>
